<?xml version="1.0" encoding="utf-8"?>
<!-- Generator: Adobe Illustrator 16.0.0, SVG Export Plug-In . SVG Version: 6.00 Build 0)  -->
<!DOCTYPE svg PUBLIC "-//W3C//DTD SVG 1.0//EN" "http://www.w3.org/TR/2001/REC-SVG-20010904/DTD/svg10.dtd">
<svg version="1.0" id="Layer_1" xmlns="http://www.w3.org/2000/svg" xmlns:xlink="http://www.w3.org/1999/xlink" x="0px" y="0px"
	 width="650px" height="500px" viewBox="0 0 650 500" enable-background="new 0 0 650 500" xml:space="preserve">
<g>
	<path fill="#FFFFFF" d="M69.021,106.578c-2.423-6.974-0.82-10.465,4.803-10.465H94.71c4.088,0,7.135,2.776,9.141,8.329
		l49.031,140.958c3.725,11.533,6.268,19.472,7.629,23.813c1.361,4.345,2.612,9.718,3.761,16.125h0.861
		c1.145-6.407,2.399-11.78,3.761-16.125c1.361-4.342,3.904-12.28,7.628-23.813l49.032-140.958c2.002-5.553,5.049-8.329,9.14-8.329
		h20.887c5.62,0,7.222,3.491,4.802,10.465l-70.051,200.757c-2.99,8.687-6.835,13.028-11.533,13.028h-28.191
		c-4.699,0-8.543-4.342-11.533-13.028L69.021,106.578z"/>
</g>
<g>
	<path fill="#FFFFFF" d="M394.084,34.584c4.271,0,6.249,2.23,6.249,7.215V96.26h45.491c6.406,0,9.61,2.49,9.61,7.475v13.242
		c0,4.985-3.204,7.475-9.61,7.475h-45.491v136.045c0,14.95,2.242,24.667,6.728,29.152c4.484,4.485,9.858,4.728,16.125,4.728
		c4.839,0,7.644-1.423,14.405-4.271s10.053-5.453,12.615-7.448c2.563-1.995,6.745-1.354,8.167,1.922l7.048,18.632
		c1.141,2.85-6.274,9.5-9.124,11.209c-5.553,3.275-7.107,5.254-17.786,8.316c-10.679,3.059-19.17,5.405-29.849,5.405
		c-14.809,0-26.162-6.34-34.064-17.019s-11.854-28.77-11.854-48.277V124.452h-25.201c-6.407,0-9.611-2.49-9.611-7.475v-13.242
		c0-4.984,3.204-7.475,9.611-7.475h25.201l-0.021-55.163c0-4.271,2.709-6.514,7.694-6.514H394.084z M362.83,34.799"/>
</g>
<g>
	<path fill="#FFFFFF" d="M448.229,159.781c-2.562-6.971-0.982-10.465,4.741-10.465h20.789c4.194,0,7.262,2.776,9.2,8.33
		l50.925,140.958c1.081,3.844,2.737,9.862,4.968,18.047c2.229,8.192,3.822,15.483,4.788,21.891h0.363
		c0.961-6.407,2.136-12.203,3.52-17.406c1.384-5.193,3.464-12.707,6.236-22.531l50.483-140.958c2.063-5.553,5.144-8.33,9.235-8.33
		h20.9c5.753,0,7.347,3.494,4.784,10.465l-71.975,200.757c-13.527,37.729-25.628,64.179-36.307,79.342
		c-10.679,15.164-26.624,22.746-47.84,22.746c-11.105,0-19.936-1.637-26.483-4.913c-2.989-1.422-3.985-3.63-2.989-6.62l5.553-17.3
		c0.995-2.989,2.917-3.844,5.766-2.562c5.84,2.422,11.461,3.631,16.873,3.631c9.965,0,18.08-5.374,24.347-16.125
		s11.247-21.536,14.95-32.355l4.271-12.602L448.229,159.781z"/>
</g>
<g>
	<path fill="#FFFFFF" d="M285.271,89.397c-6.406,0-9.61-3.204-9.61-9.611V61.419c0-6.407,3.204-9.611,9.61-9.611h18.367
		c6.407,0,9.611,3.204,9.611,9.611v18.367c0,6.407-3.204,9.611-9.611,9.611H285.271z M285.271,354.227
		c-6.406,0-9.61-3.203-9.61-9.61V139.587c0-6.407,3.204-9.611,9.61-9.611h18.367c6.407,0,9.611,3.204,9.611,9.611v205.029
		c0,6.407-3.204,9.61-9.611,9.61H285.271z"/>
</g>
<g>
	<path fill="#FFFFFF" d="M30.285,89.433c-6.406,0-9.61-3.204-9.61-9.611V61.455c0-6.407,3.204-9.611,9.61-9.611h18.367
		c6.407,0,9.611,3.204,9.611,9.611v18.367c0,6.407-3.204,9.611-9.611,9.611H30.285z M30.285,354.262c-6.406,0-9.61-3.203-9.61-9.61
		V139.622c0-6.407,3.204-9.611,9.61-9.611h18.367c6.407,0,9.611,3.204,9.611,9.611v205.029c0,6.407-3.204,9.61-9.611,9.61H30.285z"
		/>
</g>
</svg>
